# xmcd
#
# Track frame offsets: 
#        150
#        11238
#        23343
#        35005
#        45570
#        56982
#        73107
#        84820
#        97598
#        107900
#        120715
#        131835
#        145675
#        158403
#        173363
#        185013
#        197718
#        210931
#        223601
#        237583
#
# Disc length: 3352 seconds
#
# Revision: 0
# Processed by: cddbd v1.5.1PL0 Copyright (c) Steve Scherf et al.
# Submitted via: ExactAudioCopy v0.90b4
#
DISCID=0c0d1614
DTITLE=Ray Charles - Confession Blues
DYEAR=2002
DGENRE=Blues
TTITLE0=A Sentimental Blues
TTITLE1=I've Had My Fun
TTITLE2=How Long Blues
TTITLE3=Hey Now
TTITLE4=She's On The Ball
TTITLE5=Let Me Hear You Call My Name
TTITLE6=See See Rider
TTITLE7=Why Did You Go
TTITLE8=Sittin' On Top Of The World
TTITLE9=Don't Put All Your Dreams In One Basket
TTITLE10=Let´S Have A Ball
TTITLE11=Misery In My Heart
TTITLE12=Lonely Boy
TTITLE13=I´M Wondering And Wondering
TTITLE14=What Have I Done
TTITLE15=The Snow Is Falling
TTITLE16=Alone In The City
TTITLE17=Blues Before Sunrise
TTITLE18=Kissa Me Baby
TTITLE19=Someday
EXTD=
EXTT0=
EXTT1=
EXTT2=
EXTT3=
EXTT4=
EXTT5=
EXTT6=
EXTT7=
EXTT8=
EXTT9=
EXTT10=
EXTT11=
EXTT12=
EXTT13=
EXTT14=
EXTT15=
EXTT16=
EXTT17=
EXTT18=
EXTT19=
PLAYORDER=
